<?xml version="1.0" encoding="UTF-8"?>
<svg width="146px" height="29px" viewBox="0 0 146 29" version="1.1" xmlns="http://www.w3.org/2000/svg" xmlns:xlink="http://www.w3.org/1999/xlink">
    <!-- Generator: Sketch 55.2 (78181) - https://sketchapp.com -->
    <title>recess copy</title>
    <desc>Created with Sketch.</desc>
    <g id="Page-1" stroke="none" stroke-width="1" fill="none" fill-rule="evenodd">
        <g id="Letter-Copy" transform="translate(-106.000000, -135.000000)" fill="#FFFFFF" fill-rule="nonzero">
            <path d="M106,163 L106,162.888 C107.317204,162.216 108.145161,161.376 108.483871,160.368 C108.822581,159.36 108.991935,157.96 108.991935,156.168 L108.991935,141.832 C108.991935,140.04 108.822581,138.64 108.483871,137.632 C108.145161,136.624 107.317204,135.784 106,135.112 L106,135 L117.008065,135 L117.008065,156.168 C117.008065,157.96 117.177419,159.36 117.516129,160.368 C117.854839,161.376 118.682796,162.216 120,162.888 L120,163 L106,163 Z M118.274178,136.977185 C122.023415,134.440518 125.522769,134.834229 128.772241,138.158318 L125.502764,145.105504 C124.326365,143.233528 123.028228,141.496119 121.608354,139.893278 C120.188479,138.290437 119.099078,137.348645 118.340109,137.067932 L118.274178,136.977185 Z M140,146.222222 L146.483607,146.222222 C146.407104,143.851852 146.129781,141.638889 145.651639,139.583333 C145.173498,137.527778 144.551912,136.037037 143.786885,135.111111 L143.786885,135 C146.579235,135.222222 148.931694,136.407407 150.844262,138.555556 C152.75683,140.703704 153.808743,143.518518 154,147 L140,147 L140,146.222222 Z M145.553957,157.88694 C148.017586,157.88694 150.46283,156.722547 152.889688,154.393762 L153,154.448343 C152.191047,156.995452 150.830536,159.224172 148.918465,161.134503 C147.006395,163.044834 144.708234,164 142.023981,164 C138.861711,164 136.067146,162.781027 133.640288,160.34308 C131.213429,157.905133 130,154.43015 130,149.918129 C130,146.061078 131.001999,142.931774 133.005995,140.530214 C135.009992,138.128655 137.446043,136.618583 140.314149,136 L140.314149,136.109162 C139.431655,136.873294 138.659472,138.165043 137.997602,139.984405 C137.335731,141.803768 137.004796,144.059779 137.004796,146.752437 C137.004796,150.500325 137.868905,153.293047 139.597122,155.130604 C141.325339,156.968161 143.310951,157.88694 145.553957,157.88694 Z M170.055901,135 C171.956522,135.14966 173.689441,135.785714 175.254658,136.908163 C176.819876,138.030612 178.068323,139.583334 179,141.566327 L170.111801,146 L170,145.943878 C170.447205,144.596939 170.680125,142.772959 170.698758,140.471939 C170.717391,138.170918 170.503106,136.384354 170.055901,135.112245 L170.055901,135 Z M166.314149,136.11002 C164.585932,138.603798 163.721823,142.124427 163.721823,146.671906 C163.721823,150.449247 164.503198,153.254748 166.065947,155.088409 C167.628697,156.922069 169.458034,157.8389 171.553957,157.8389 C174.385291,157.8389 176.830536,156.70203 178.889688,154.428291 L179,154.483301 C178.264589,156.75704 176.867306,158.911591 174.808153,160.946955 C172.749001,162.982318 170.505995,164 168.079137,164 C164.916867,164 162.113109,162.780615 159.667866,160.341847 C157.222622,157.903078 156,154.464964 156,150.027505 C156,146.213491 157.011191,143.068762 159.033573,140.59332 C161.055956,138.117878 163.482814,136.586772 166.314149,136 L166.314149,136.11002 Z M190,146.222222 L196.483607,146.222222 C196.407104,143.851852 196.129781,141.638889 195.651639,139.583333 C195.173498,137.527778 194.551912,136.037037 193.786885,135.111111 L193.786885,135 C196.579235,135.222222 198.931694,136.407407 200.844262,138.555556 C202.75683,140.703704 203.808743,143.518518 204,147 L190,147 L190,146.222222 Z M196.553957,157.88694 C199.017586,157.88694 201.46283,156.722547 203.889688,154.393762 L204,154.448343 C203.191047,156.995452 201.830536,159.224172 199.918465,161.134503 C198.006395,163.044834 195.708234,164 193.023981,164 C189.861711,164 187.067146,162.781027 184.640288,160.34308 C182.213429,157.905133 181,154.43015 181,149.918129 C181,146.061078 182.001999,142.931774 184.005995,140.530214 C186.009992,138.128655 188.446043,136.618583 191.314149,136 L191.314149,136.109162 C190.431655,136.873294 189.659472,138.165043 188.997602,139.984405 C188.335731,141.803768 188.004796,144.059779 188.004796,146.752437 C188.004796,150.500325 188.868905,153.293047 190.597122,155.130604 C192.325339,156.968161 194.310951,157.88694 196.553957,157.88694 Z M218,136 C219.875,136.069444 222.725,136.555556 226.55,137.458333 L227,146 L226.8875,146 C223.55,140.097222 220.5875,136.798611 218,136.104167 L218,136 Z M220.707692,163.887379 C221.723077,163.549515 222.606838,162.939482 223.358974,162.057282 C224.111111,161.175081 224.487179,160.077022 224.487179,158.763107 C224.487179,158.237541 224.402564,157.7589 224.233333,157.327184 C224.064103,156.895469 223.735043,156.482524 223.246154,156.08835 C222.757265,155.694175 222.324787,155.365696 221.948718,155.102913 C221.572649,154.840129 220.933333,154.53042 220.030769,154.173786 C219.128205,153.817152 218.432479,153.554369 217.94359,153.385437 C217.454701,153.216505 216.627351,152.925566 215.461538,152.512621 C212.227351,151.386408 210.008547,150.147573 208.805128,148.796117 C207.60171,147.44466 207,145.717799 207,143.615534 C207,141.137864 207.77094,139.18576 209.312821,137.759223 C210.854701,136.332686 212.810256,135.412945 215.179487,135 L215.179487,135.112621 C212.772649,136.276376 211.569231,137.871845 211.569231,139.899029 C211.569231,140.462136 211.719658,140.968932 212.020513,141.419417 C212.321367,141.869903 212.650428,142.254692 213.007692,142.573786 C213.364957,142.892881 213.966667,143.240129 214.812821,143.615534 C215.658974,143.990939 216.354701,144.281877 216.9,144.48835 C217.445299,144.694822 218.338462,145.004531 219.579487,145.417476 C222.738462,146.468609 225.09829,147.716828 226.658974,149.162136 C228.219658,150.607444 229,152.606473 229,155.159223 C229,157.824595 228.219658,159.87055 226.658974,161.297087 C225.09829,162.723624 223.11453,163.624595 220.707692,164 L220.707692,163.887379 Z M216,164 C214.232044,163.930131 211.119706,163.458516 206.662983,162.585153 L206,152 L206.055249,152 C206.681399,153.292577 207.21547,154.340612 207.657459,155.144105 C208.099448,155.947598 208.762431,157.021834 209.646409,158.366812 C210.530387,159.711791 211.506446,160.847161 212.574586,161.772926 C213.642725,162.69869 214.78453,163.406114 216,163.895197 L216,164 Z M242,136 C243.875,136.069444 246.725,136.555556 250.55,137.458333 L251,146 L250.8875,146 C247.55,140.097222 244.5875,136.798611 242,136.104167 L242,136 Z M243.707692,163.887379 C244.723077,163.549515 245.606838,162.939482 246.358974,162.057282 C247.111111,161.175081 247.487179,160.077022 247.487179,158.763107 C247.487179,158.237541 247.402564,157.7589 247.233333,157.327184 C247.064103,156.895469 246.735043,156.482524 246.246154,156.08835 C245.757265,155.694175 245.324787,155.365696 244.948718,155.102913 C244.572649,154.840129 243.933333,154.53042 243.030769,154.173786 C242.128205,153.817152 241.432479,153.554369 240.94359,153.385437 C240.454701,153.216505 239.627351,152.925566 238.461538,152.512621 C235.227351,151.386408 233.008547,150.147573 231.805128,148.796117 C230.60171,147.44466 230,145.717799 230,143.615534 C230,141.137864 230.77094,139.18576 232.312821,137.759223 C233.854701,136.332686 235.810256,135.412945 238.179487,135 L238.179487,135.112621 C235.772649,136.276376 234.569231,137.871845 234.569231,139.899029 C234.569231,140.462136 234.719658,140.968932 235.020513,141.419417 C235.321367,141.869903 235.650428,142.254692 236.007692,142.573786 C236.364957,142.892881 236.966667,143.240129 237.812821,143.615534 C238.658974,143.990939 239.354701,144.281877 239.9,144.48835 C240.445299,144.694822 241.338462,145.004531 242.579487,145.417476 C245.738462,146.468609 248.09829,147.716828 249.658974,149.162136 C251.219658,150.607444 252,152.606473 252,155.159223 C252,157.824595 251.219658,159.87055 249.658974,161.297087 C248.09829,162.723624 246.11453,163.624595 243.707692,164 L243.707692,163.887379 Z M241,164 C239.232044,163.930131 236.119706,163.458516 231.662983,162.585153 L231,152 L231.055249,152 C231.681399,153.292577 232.21547,154.340612 232.657459,155.144105 C233.099448,155.947598 233.762431,157.021834 234.646409,158.366812 C235.530387,159.711791 236.506446,160.847161 237.574586,161.772926 C238.642725,162.69869 239.78453,163.406114 241,163.895197 L241,164 Z" id="recess-copy"></path>
        </g>
    </g>
</svg>